<svg id="Layer_1" enable-background="new 0 0 510.625 510.625" height="512" viewBox="0 0 510.625 510.625" width="512" xmlns="http://www.w3.org/2000/svg"><circle cx="152.097" cy="66.174" r="43.481"/><path d="m144.904 122.254c-2.045 0-3.589 1.855-3.218 3.866l2.679 14.512c.286 1.552 1.64 2.678 3.218 2.678h10.912c1.578 0 2.932-1.126 3.218-2.678l2.679-14.512c.371-2.011-1.173-3.866-3.218-3.866z"/><path d="m500.109 271.366c-13.272 0-102.712 0-117.824 0v-24.858h52.515c6.663 0 12.065-5.402 12.065-12.064v-98.792c0-6.663-5.401-12.064-12.064-12.064h-153.237c-6.663 0-12.065 5.402-12.065 12.064v98.792c0 6.663 5.401 12.064 12.064 12.064h52.018v24.858h-73.971v-99.61c0-.035 0-.07 0-.105-.136-27.238-22.576-49.397-50.022-49.397h-26.921c-1.286 6.91-8.112 40.334-21.543 50.552l2.25-10.688c.074-.353.077-.717.007-1.071l-2.643-12.434c-.247-1.258-1.35-2.165-2.633-2.165h-10.135c-1.282 0-2.385.907-2.632 2.165l-2.643 12.434c-.07.354-.067.718.007 1.071l2.25 10.688c-13.431-10.219-20.257-43.642-21.543-50.552h-27.185c-27.446 0-49.885 22.16-50.022 49.397v.105 79.689c0 9.296 6.053 17.167 14.428 19.921-3.298 0-47.247 0-50.114 0-5.808 0-10.516 4.708-10.516 10.516v10.39c0 5.808 4.708 10.516 10.516 10.516h22.136v185.144h445.321v-185.144h22.136c5.808 0 10.516-4.708 10.516-10.516v-10.39c0-5.808-4.708-10.516-10.516-10.516zm-324.54 0h-16.922c8.375-2.754 14.428-10.625 14.428-19.921 0-11.586-9.392-20.978-20.978-20.978h-63.939c0-52.322 0-6.158 0-58.636.039-4.135 3.725-7.622 8.066-7.622h1.12v56.443h54.753c17.006 0 30.792 13.786 30.792 30.792.001 7.6-2.758 14.551-7.32 19.922zm42.086 0h-9.186v-107.157h1.12c4.341 0 8.028 3.487 8.066 7.622zm140.527-69.982c-9.022 0-16.336-7.314-16.336-16.336s7.314-16.336 16.336-16.336 16.336 7.314 16.336 16.336-7.314 16.336-16.336 16.336z"/></svg>